<?xml version="1.0" standalone="no"?><!DOCTYPE svg PUBLIC "-//W3C//DTD SVG 1.1//EN" "http://www.w3.org/Graphics/SVG/1.1/DTD/svg11.dtd"><svg xmlns:xlink="http://www.w3.org/1999/xlink" version="1.1" style="font-family:'lucida grande', 'lucida sans unicode', arial, helvetica, sans-serif;font-size:12px;" xmlns="http://www.w3.org/2000/svg" width="600" height="400"><desc>Created with Highcharts 4.1.8</desc><defs><clipPath id="highcharts-6"><rect x="0" y="0" width="580" height="340"></rect></clipPath></defs><rect x="0" y="0" width="600" height="400" strokeWidth="0" fill="#FFFFFF" class=" highcharts-background"></rect><g class="highcharts-series-group" ><g class="highcharts-series" visibility="visible"  transform="translate(10,45) scale(1 1)"><path fill="#7cb5ec" d="M 238.97790145739907 67.5000022504405 A 108.5 108.5 0 1 1 185.0693286230417 270.1473987151559 L 239 176 A 0 0 0 1 0 239 176 Z" stroke="#FFFFFF" stroke-width="1" stroke-linejoin="round" transform="translate(0,0)"></path><path fill="#434348" d="M 184.97520820535127 270.09342097907194 A 108.5 108.5 0 0 1 144.43500565856357 122.80496409246348 L 239 176 A 0 0 0 0 0 239 176 Z" stroke="#FFFFFF" stroke-width="1" stroke-linejoin="round" transform="translate(-10,3)"></path><path fill="#90ed7d" d="M 144.4882479680985 122.71042571139864 A 108.5 108.5 0 0 1 198.41388678569328 75.37685448091241 L 239 176 A 0 0 0 0 0 239 176 Z" stroke="#FFFFFF" stroke-width="1" stroke-linejoin="round" transform="translate(0,0)"></path><path fill="#f7a35c" d="M 198.5145302074968 75.336318686031 A 108.5 108.5 0 0 1 231.04444148153655 67.79205625898206 L 239 176 A 0 0 0 0 0 239 176 Z" stroke="#FFFFFF" stroke-width="1" stroke-linejoin="round" transform="translate(0,0)"></path><path fill="#8085e9" d="M 231.1526533850219 67.78415480575688 A 108.5 108.5 0 0 1 237.4388495003795 67.51123187574883 L 239 176 A 0 0 0 0 0 239 176 Z" stroke="#FFFFFF" stroke-width="1" stroke-linejoin="round" transform="translate(0,0)"></path><path fill="#f15c80" d="M 237.5473390309975 67.50972496988895 A 108.5 108.5 0 0 1 238.84929567671924 67.50010466269129 L 239 176 A 0 0 0 0 0 239 176 Z" stroke="#FFFFFF" stroke-width="1" stroke-linejoin="round" transform="translate(0,0)"></path></g><g class="highcharts-markers" visibility="visible"  transform="translate(10,45) scale(1 1)"></g></g><text x="300" text-anchor="middle" class="highcharts-title"  style="color:#333333;font-size:18px;fill:#333333;width:536px;" y="24"><tspan>Browser market shares January, 2015 to May, 2015</tspan></text><g class="highcharts-data-labels" visibility="visible"  transform="translate(10,45) scale(1 1)" opacity="1"><path fill="none" d="M 377.3175649280222 211.2086728503674 C 372.3175649280222 211.2086728503674 364.58803049174657 209.1460780286855 353.95992064186754 206.31001014887295 L 343.3318107919885 203.4739422690604" stroke="#7cb5ec" stroke-width="1"></path><path fill="none" d="M 99.94129087597562 212.1649862556124 C 104.94129087597562 212.1649862556124 112.65587335245357 210.04715311449402 123.26342425761074 207.1351325454562 L 133.8709751627679 204.22311197641838" stroke="#434348" stroke-width="1"></path><path fill="none" d="M 115.4915257280224 103 C 120.4915257280224 103 152.46201758843415 77.37907673412828 159.71426131661212 85.64980589830137 L 166.9665050447901 93.92053506247446" stroke="#90ed7d" stroke-width="1"></path><path fill="none" d="M 132.2478395292229 81 C 137.2478395292229 81 209.09473563815394 48.356064132771365 211.57334029700687 59.07317750089025 L 214.0519449558598 69.79029086900914" stroke="#f7a35c" stroke-width="1"></path><path fill="none" d="M 158.60006675570395 59 C 163.60006675570395 59 232.94309060416447 45.118364951322704 233.41148909730003 56.10838782898899 L 233.8798875904356 67.09841070665527" stroke="#8085e9" stroke-width="1"></path><path fill="none" d="M 232.59934275345137 37 C 237.59934275345137 37 237.6513662767151 45.00275933643768 237.72289862120655 56.00252674869197 L 237.794430965698 67.00229416094626" stroke="#f15c80" stroke-width="1"></path><g  style="cursor:pointer;" transform="translate(382,201)"><text x="5"  style="font-size: 11px; font-weight: bold; color: black; fill: black; text-shadow: rgb(255, 255, 255) 0px 0px 6px, rgb(255, 255, 255) 0px 0px 3px; text-rendering: geometricprecision;" y="16"><tspan style="font-weight:bold">Microsoft Internet Explorer</tspan><tspan dx="0">: 58.3 %</tspan></text></g><g  style="cursor:pointer;" transform="translate(6,202)"><text x="5"  style="font-size: 11px; font-weight: bold; color: black; fill: black; text-shadow: rgb(255, 255, 255) 0px 0px 6px, rgb(255, 255, 255) 0px 0px 3px; text-rendering: geometricprecision;" y="16"><tspan style="font-weight:bold">Chrome</tspan><tspan dx="0">: 24.9 %</tspan></text></g><g  style="cursor:pointer;" transform="translate(28,93)"><text x="5"  style="font-size: 11px; font-weight: bold; color: black; fill: black; text-shadow: rgb(255, 255, 255) 0px 0px 6px, rgb(255, 255, 255) 0px 0px 3px; text-rendering: geometricprecision;" y="16"><tspan style="font-weight:bold">Firefox</tspan><tspan dx="0">: 10.7 %</tspan></text></g><g  style="cursor:pointer;" transform="translate(58,71)"><text x="5"  style="font-size: 11px; font-weight: bold; color: black; fill: black; text-shadow: rgb(255, 255, 255) 0px 0px 6px, rgb(255, 255, 255) 0px 0px 3px; text-rendering: geometricprecision;" y="16"><tspan style="font-weight:bold">Safari</tspan><tspan dx="0">: 4.9 %</tspan></text></g><g  style="cursor:pointer;" transform="translate(83,49)"><text x="5"  style="font-size: 11px; font-weight: bold; color: black; fill: black; text-shadow: rgb(255, 255, 255) 0px 0px 6px, rgb(255, 255, 255) 0px 0px 3px; text-rendering: geometricprecision;" y="16"><tspan style="font-weight:bold">Opera</tspan><tspan dx="0">: 0.9 %</tspan></text></g><g  style="cursor:pointer;" transform="translate(38,27)"><text x="5"  style="font-size: 11px; font-weight: bold; color: black; fill: black; text-shadow: rgb(255, 255, 255) 0px 0px 6px, rgb(255, 255, 255) 0px 0px 3px; text-rendering: geometricprecision;" y="16"><tspan style="font-weight:bold">Proprietary or Undetectable</tspan><tspan dx="0">: 0.2 %</tspan></text></g></g><g class="highcharts-legend" ><g ><g></g></g></g><g class="highcharts-tooltip"  style="cursor:default;padding:0;white-space:nowrap;" transform="translate(0,-9999)"><path fill="none" d="M 3.5 0.5 L 13.5 0.5 C 16.5 0.5 16.5 0.5 16.5 3.5 L 16.5 13.5 C 16.5 16.5 16.5 16.5 13.5 16.5 L 3.5 16.5 C 0.5 16.5 0.5 16.5 0.5 13.5 L 0.5 3.5 C 0.5 0.5 0.5 0.5 3.5 0.5"  stroke="black" stroke-opacity="0.049999999999999996" stroke-width="5" transform="translate(1, 1)"></path><path fill="none" d="M 3.5 0.5 L 13.5 0.5 C 16.5 0.5 16.5 0.5 16.5 3.5 L 16.5 13.5 C 16.5 16.5 16.5 16.5 13.5 16.5 L 3.5 16.5 C 0.5 16.5 0.5 16.5 0.5 13.5 L 0.5 3.5 C 0.5 0.5 0.5 0.5 3.5 0.5"  stroke="black" stroke-opacity="0.09999999999999999" stroke-width="3" transform="translate(1, 1)"></path><path fill="none" d="M 3.5 0.5 L 13.5 0.5 C 16.5 0.5 16.5 0.5 16.5 3.5 L 16.5 13.5 C 16.5 16.5 16.5 16.5 13.5 16.5 L 3.5 16.5 C 0.5 16.5 0.5 16.5 0.5 13.5 L 0.5 3.5 C 0.5 0.5 0.5 0.5 3.5 0.5"  stroke="black" stroke-opacity="0.15" stroke-width="1" transform="translate(1, 1)"></path><path fill="rgb(249, 249, 249)" fill-opacity=" .85" d="M 3.5 0.5 L 13.5 0.5 C 16.5 0.5 16.5 0.5 16.5 3.5 L 16.5 13.5 C 16.5 16.5 16.5 16.5 13.5 16.5 L 3.5 16.5 C 0.5 16.5 0.5 16.5 0.5 13.5 L 0.5 3.5 C 0.5 0.5 0.5 0.5 3.5 0.5"></path><text x="8"  style="font-size:12px;color:#333333;fill:#333333;" y="20"></text></g><text x="590" text-anchor="end"  style="cursor:pointer;color:#909090;font-size:9px;fill:#909090;" y="395">Highcharts.com</text></svg>