<?xml version="1.0" standalone="no"?><!DOCTYPE svg PUBLIC "-//W3C//DTD SVG 1.1//EN" "http://www.w3.org/Graphics/SVG/1.1/DTD/svg11.dtd"><svg xmlns:xlink="http://www.w3.org/1999/xlink" version="1.1" style="font-family:'lucida grande', 'lucida sans unicode', arial, helvetica, sans-serif;font-size:12px;" xmlns="http://www.w3.org/2000/svg" width="600" height="400"><desc>Created with Highcharts 4.1.8</desc><defs><clipPath id="highcharts-7"><rect x="0" y="0" width="426" height="306"></rect></clipPath></defs><rect x="0" y="0" width="600" height="400" strokeWidth="0" fill="#FFFFFF" class=" highcharts-background"></rect><path fill="none" d="M 61 321.5 L 487 321.5" stroke="#808080" stroke-width="1"></path><g class="highcharts-grid" ></g><g class="highcharts-grid" ><path fill="none" d="M 61 365.5 L 487 365.5" stroke="#D8D8D8" stroke-width="1"  opacity="1"></path><path fill="none" d="M 61 321.5 L 487 321.5" stroke="#D8D8D8" stroke-width="1"  opacity="1"></path><path fill="none" d="M 61 278.5 L 487 278.5" stroke="#D8D8D8" stroke-width="1"  opacity="1"></path><path fill="none" d="M 61 234.5 L 487 234.5" stroke="#D8D8D8" stroke-width="1"  opacity="1"></path><path fill="none" d="M 61 190.5 L 487 190.5" stroke="#D8D8D8" stroke-width="1"  opacity="1"></path><path fill="none" d="M 61 146.5 L 487 146.5" stroke="#D8D8D8" stroke-width="1"  opacity="1"></path><path fill="none" d="M 61 103.5 L 487 103.5" stroke="#D8D8D8" stroke-width="1"  opacity="1"></path><path fill="none" d="M 61 59.5 L 487 59.5" stroke="#D8D8D8" stroke-width="1"  opacity="1"></path></g><g class="highcharts-axis" ><path fill="none" d="M 96.5 365 L 96.5 375" stroke="#C0D0E0" stroke-width="1" opacity="1"></path><path fill="none" d="M 131.5 365 L 131.5 375" stroke="#C0D0E0" stroke-width="1" opacity="1"></path><path fill="none" d="M 167.5 365 L 167.5 375" stroke="#C0D0E0" stroke-width="1" opacity="1"></path><path fill="none" d="M 202.5 365 L 202.5 375" stroke="#C0D0E0" stroke-width="1" opacity="1"></path><path fill="none" d="M 238.5 365 L 238.5 375" stroke="#C0D0E0" stroke-width="1" opacity="1"></path><path fill="none" d="M 273.5 365 L 273.5 375" stroke="#C0D0E0" stroke-width="1" opacity="1"></path><path fill="none" d="M 309.5 365 L 309.5 375" stroke="#C0D0E0" stroke-width="1" opacity="1"></path><path fill="none" d="M 344.5 365 L 344.5 375" stroke="#C0D0E0" stroke-width="1" opacity="1"></path><path fill="none" d="M 380.5 365 L 380.5 375" stroke="#C0D0E0" stroke-width="1" opacity="1"></path><path fill="none" d="M 415.5 365 L 415.5 375" stroke="#C0D0E0" stroke-width="1" opacity="1"></path><path fill="none" d="M 451.5 365 L 451.5 375" stroke="#C0D0E0" stroke-width="1" opacity="1"></path><path fill="none" d="M 487.5 365 L 487.5 375" stroke="#C0D0E0" stroke-width="1" opacity="1"></path><path fill="none" d="M 60.5 365 L 60.5 375" stroke="#C0D0E0" stroke-width="1" opacity="1"></path><path fill="none" d="M 61 365.5 L 487 365.5" stroke="#C0D0E0" stroke-width="1"  visibility="visible"></path></g><g class="highcharts-axis" ><text x="24"  text-anchor="middle" transform="translate(0,0) rotate(270 24 212)" class=" highcharts-yaxis-title" style="color:#707070;fill:#707070;" visibility="visible" y="212"><tspan>Temperature (°C)</tspan></text></g><g class="highcharts-series-group" ><g class="highcharts-series" visibility="visible"  transform="translate(61,59) scale(1 1)" clip-path="url(#highcharts-7)"><path fill="none" d="M 17.75 201.0857142857143 L 53.25 201.96 L 88.75 179.22857142857146 L 124.25 135.51428571428573 L 159.75 103.1657142857143 L 195.25 74.31428571428575 L 230.75 41.96571428571434 L 266.25 30.600000000000023 L 301.75 58.57714285714289 L 337.25 102.29142857142858 L 372.75 140.76000000000002 L 408.25 178.3542857142857" stroke="#7cb5ec" stroke-width="2"  stroke-linejoin="round" stroke-linecap="round"></path></g><g class="highcharts-markers" visibility="visible"  transform="translate(61,59) scale(1 1)" clip-path="none"><path fill="#7cb5ec" d="M 408 174.3542857142857 C 413.328 174.3542857142857 413.328 182.3542857142857 408 182.3542857142857 C 402.672 182.3542857142857 402.672 174.3542857142857 408 174.3542857142857 Z"></path><path fill="#7cb5ec" d="M 372 136.76000000000002 C 377.328 136.76000000000002 377.328 144.76000000000002 372 144.76000000000002 C 366.672 144.76000000000002 366.672 136.76000000000002 372 136.76000000000002 Z"></path><path fill="#7cb5ec" d="M 337 98.29142857142858 C 342.328 98.29142857142858 342.328 106.29142857142858 337 106.29142857142858 C 331.672 106.29142857142858 331.672 98.29142857142858 337 98.29142857142858 Z"></path><path fill="#7cb5ec" d="M 301 54.57714285714289 C 306.328 54.57714285714289 306.328 62.57714285714289 301 62.57714285714289 C 295.672 62.57714285714289 295.672 54.57714285714289 301 54.57714285714289 Z"></path><path fill="#7cb5ec" d="M 266 26.600000000000023 C 271.328 26.600000000000023 271.328 34.60000000000002 266 34.60000000000002 C 260.672 34.60000000000002 260.672 26.600000000000023 266 26.600000000000023 Z"></path><path fill="#7cb5ec" d="M 230 37.96571428571434 C 235.328 37.96571428571434 235.328 45.96571428571434 230 45.96571428571434 C 224.672 45.96571428571434 224.672 37.96571428571434 230 37.96571428571434 Z"></path><path fill="#7cb5ec" d="M 195 70.31428571428575 C 200.328 70.31428571428575 200.328 78.31428571428575 195 78.31428571428575 C 189.672 78.31428571428575 189.672 70.31428571428575 195 70.31428571428575 Z"></path><path fill="#7cb5ec" d="M 159 99.1657142857143 C 164.328 99.1657142857143 164.328 107.1657142857143 159 107.1657142857143 C 153.672 107.1657142857143 153.672 99.1657142857143 159 99.1657142857143 Z"></path><path fill="#7cb5ec" d="M 124 131.51428571428573 C 129.328 131.51428571428573 129.328 139.51428571428573 124 139.51428571428573 C 118.672 139.51428571428573 118.672 131.51428571428573 124 131.51428571428573 Z"></path><path fill="#7cb5ec" d="M 88 175.22857142857146 C 93.328 175.22857142857146 93.328 183.22857142857146 88 183.22857142857146 C 82.672 183.22857142857146 82.672 175.22857142857146 88 175.22857142857146 Z"></path><path fill="#7cb5ec" d="M 53 197.96 C 58.328 197.96 58.328 205.96 53 205.96 C 47.672 205.96 47.672 197.96 53 197.96 Z"></path><path fill="#7cb5ec" d="M 17 197.0857142857143 C 22.328 197.0857142857143 22.328 205.0857142857143 17 205.0857142857143 C 11.672 205.0857142857143 11.672 197.0857142857143 17 197.0857142857143 Z"></path></g><g class="highcharts-series" visibility="visible"  transform="translate(61,59) scale(1 1)" clip-path="url(#highcharts-7)"><path fill="none" d="M 17.75 264.0342857142857 L 53.25 255.29142857142858 L 88.75 212.4514285714286 L 124.25 163.49142857142857 L 159.75 113.65714285714287 L 195.25 69.94285714285718 L 230.75 45.46285714285716 L 266.25 51.582857142857165 L 301.75 86.55428571428573 L 337.25 139.01142857142858 L 372.75 187.09714285714287 L 408.25 240.42857142857144" stroke="#434348" stroke-width="2"  stroke-linejoin="round" stroke-linecap="round"></path></g><g class="highcharts-markers" visibility="visible"  transform="translate(61,59) scale(1 1)" clip-path="none"><path fill="#434348" d="M 408 236.42857142857144 L 412 240.42857142857144 408 244.42857142857144 404 240.42857142857144 Z"></path><path fill="#434348" d="M 372 183.09714285714287 L 376 187.09714285714287 372 191.09714285714287 368 187.09714285714287 Z"></path><path fill="#434348" d="M 337 135.01142857142858 L 341 139.01142857142858 337 143.01142857142858 333 139.01142857142858 Z"></path><path fill="#434348" d="M 301 82.55428571428573 L 305 86.55428571428573 301 90.55428571428573 297 86.55428571428573 Z"></path><path fill="#434348" d="M 266 47.582857142857165 L 270 51.582857142857165 266 55.582857142857165 262 51.582857142857165 Z"></path><path fill="#434348" d="M 230 41.46285714285716 L 234 45.46285714285716 230 49.46285714285716 226 45.46285714285716 Z"></path><path fill="#434348" d="M 195 65.94285714285718 L 199 69.94285714285718 195 73.94285714285718 191 69.94285714285718 Z"></path><path fill="#434348" d="M 159 109.65714285714287 L 163 113.65714285714287 159 117.65714285714287 155 113.65714285714287 Z"></path><path fill="#434348" d="M 124 159.49142857142857 L 128 163.49142857142857 124 167.49142857142857 120 163.49142857142857 Z"></path><path fill="#434348" d="M 88 208.4514285714286 L 92 212.4514285714286 88 216.4514285714286 84 212.4514285714286 Z"></path><path fill="#434348" d="M 53 251.29142857142858 L 57 255.29142857142858 53 259.2914285714286 49 255.29142857142858 Z"></path><path fill="#434348" d="M 17 260.0342857142857 L 21 264.0342857142857 17 268.0342857142857 13 264.0342857142857 Z"></path></g><g class="highcharts-series" visibility="visible"  transform="translate(61,59) scale(1 1)" clip-path="url(#highcharts-7)"><path fill="none" d="M 17.75 270.1542857142857 L 53.25 257.04 L 88.75 231.6857142857143 L 124.25 188.84571428571428 L 159.75 144.25714285714287 L 195.25 113.65714285714287 L 230.75 99.66857142857143 L 266.25 105.78857142857146 L 301.75 137.26285714285714 L 337.25 183.60000000000002 L 372.75 228.18857142857144 L 408.25 253.54285714285714" stroke="#90ed7d" stroke-width="2"  stroke-linejoin="round" stroke-linecap="round"></path></g><g class="highcharts-markers" visibility="visible"  transform="translate(61,59) scale(1 1)" clip-path="none"><path fill="#90ed7d" d="M 404 249.54285714285714 L 412 249.54285714285714 412 257.54285714285714 404 257.54285714285714 Z"></path><path fill="#90ed7d" d="M 368 224.18857142857144 L 376 224.18857142857144 376 232.18857142857144 368 232.18857142857144 Z"></path><path fill="#90ed7d" d="M 333 179.60000000000002 L 341 179.60000000000002 341 187.60000000000002 333 187.60000000000002 Z"></path><path fill="#90ed7d" d="M 297 133.26285714285714 L 305 133.26285714285714 305 141.26285714285714 297 141.26285714285714 Z"></path><path fill="#90ed7d" d="M 262 101.78857142857146 L 270 101.78857142857146 270 109.78857142857146 262 109.78857142857146 Z"></path><path fill="#90ed7d" d="M 226 95.66857142857143 L 234 95.66857142857143 234 103.66857142857143 226 103.66857142857143 Z"></path><path fill="#90ed7d" d="M 191 109.65714285714287 L 199 109.65714285714287 199 117.65714285714287 191 117.65714285714287 Z"></path><path fill="#90ed7d" d="M 155 140.25714285714287 L 163 140.25714285714287 163 148.25714285714287 155 148.25714285714287 Z"></path><path fill="#90ed7d" d="M 120 184.84571428571428 L 128 184.84571428571428 128 192.84571428571428 120 192.84571428571428 Z"></path><path fill="#90ed7d" d="M 84 227.6857142857143 L 92 227.6857142857143 92 235.6857142857143 84 235.6857142857143 Z"></path><path fill="#90ed7d" d="M 49 253.04000000000002 L 57 253.04000000000002 57 261.04 49 261.04 Z"></path><path fill="#90ed7d" d="M 13 266.1542857142857 L 21 266.1542857142857 21 274.1542857142857 13 274.1542857142857 Z"></path></g><g class="highcharts-series" visibility="visible"  transform="translate(61,59) scale(1 1)" clip-path="url(#highcharts-7)"><path fill="none" d="M 17.75 228.18857142857144 L 53.25 225.5657142857143 L 88.75 212.4514285714286 L 124.25 187.9714285714286 L 159.75 158.2457142857143 L 195.25 129.39428571428573 L 230.75 113.65714285714287 L 266.25 117.15428571428572 L 301.75 138.1371428571429 L 337.25 172.23428571428573 L 372.75 204.58285714285716 L 408.25 220.32" stroke="#f7a35c" stroke-width="2"  stroke-linejoin="round" stroke-linecap="round"></path></g><g class="highcharts-markers" visibility="visible"  transform="translate(61,59) scale(1 1)" clip-path="none"><path fill="#f7a35c" d="M 408 216.32 L 412 224.32 404 224.32 Z"></path><path fill="#f7a35c" d="M 372 200.58285714285716 L 376 208.58285714285716 368 208.58285714285716 Z"></path><path fill="#f7a35c" d="M 337 168.23428571428573 L 341 176.23428571428573 333 176.23428571428573 Z"></path><path fill="#f7a35c" d="M 301 134.1371428571429 L 305 142.1371428571429 297 142.1371428571429 Z"></path><path fill="#f7a35c" d="M 266 113.15428571428572 L 270 121.15428571428572 262 121.15428571428572 Z"></path><path fill="#f7a35c" d="M 230 109.65714285714287 L 234 117.65714285714287 226 117.65714285714287 Z"></path><path fill="#f7a35c" d="M 195 125.39428571428573 L 199 133.39428571428573 191 133.39428571428573 Z"></path><path fill="#f7a35c" d="M 159 154.2457142857143 L 163 162.2457142857143 155 162.2457142857143 Z"></path><path fill="#f7a35c" d="M 124 183.9714285714286 L 128 191.9714285714286 120 191.9714285714286 Z"></path><path fill="#f7a35c" d="M 88 208.4514285714286 L 92 216.4514285714286 84 216.4514285714286 Z"></path><path fill="#f7a35c" d="M 53 221.5657142857143 L 57 229.5657142857143 49 229.5657142857143 Z"></path><path fill="#f7a35c" d="M 17 224.18857142857144 L 21 232.18857142857144 13 232.18857142857144 Z"></path></g></g><text x="280" text-anchor="middle" class="highcharts-title"  style="color:#333333;font-size:18px;fill:#333333;width:536px;" y="24"><tspan>Monthly Average Temperature</tspan></text><text x="280" text-anchor="middle" class="highcharts-subtitle"  style="color:#555555;fill:#555555;width:536px;" y="44"><tspan>Source: WorldClimate.com</tspan></text><g class="highcharts-legend"  transform="translate(499,164)"><g ><g><g class="highcharts-legend-item"  transform="translate(8,3)"><path fill="none" d="M 0 11 L 16 11" stroke="#7cb5ec" stroke-width="2"></path><path fill="#7cb5ec" d="M 8 7 C 13.328 7 13.328 15 8 15 C 2.6719999999999997 15 2.6719999999999997 7 8 7 Z"></path><text x="21" style="color:#333333;font-size:12px;font-weight:bold;cursor:pointer;fill:#333333;" text-anchor="start"  y="15">Tokyo</text></g><g class="highcharts-legend-item"  transform="translate(8,17)"><path fill="none" d="M 0 11 L 16 11" stroke="#434348" stroke-width="2"></path><path fill="#434348" d="M 8 7 L 12 11 8 15 4 11 Z"></path><text x="21" y="15" style="color:#333333;font-size:12px;font-weight:bold;cursor:pointer;fill:#333333;" text-anchor="start" ><tspan>New York</tspan></text></g><g class="highcharts-legend-item"  transform="translate(8,31)"><path fill="none" d="M 0 11 L 16 11" stroke="#90ed7d" stroke-width="2"></path><path fill="#90ed7d" d="M 4 7 L 12 7 12 15 4 15 Z"></path><text x="21" y="15" style="color:#333333;font-size:12px;font-weight:bold;cursor:pointer;fill:#333333;" text-anchor="start" >Berlin</text></g><g class="highcharts-legend-item"  transform="translate(8,45)"><path fill="none" d="M 0 11 L 16 11" stroke="#f7a35c" stroke-width="2"></path><path fill="#f7a35c" d="M 8 7 L 12 15 4 15 Z"></path><text x="21" y="15" style="color:#333333;font-size:12px;font-weight:bold;cursor:pointer;fill:#333333;" text-anchor="start" >London</text></g></g></g></g><g class="highcharts-axis-labels highcharts-xaxis-labels" ><text x="78.75" style="color:#606060;cursor:default;font-size:11px;fill:#606060;" text-anchor="middle" transform="translate(0,0)" y="384" opacity="1">Jan</text><text x="114.25" style="color:#606060;cursor:default;font-size:11px;fill:#606060;" text-anchor="middle" transform="translate(0,0)" y="384" opacity="1">Feb</text><text x="149.75" style="color:#606060;cursor:default;font-size:11px;fill:#606060;" text-anchor="middle" transform="translate(0,0)" y="384" opacity="1">Mar</text><text x="185.25" style="color:#606060;cursor:default;font-size:11px;fill:#606060;" text-anchor="middle" transform="translate(0,0)" y="384" opacity="1">Apr</text><text x="220.75" style="color:#606060;cursor:default;font-size:11px;fill:#606060;" text-anchor="middle" transform="translate(0,0)" y="384" opacity="1">May</text><text x="256.25" style="color:#606060;cursor:default;font-size:11px;fill:#606060;" text-anchor="middle" transform="translate(0,0)" y="384" opacity="1">Jun</text><text x="291.75" style="color:#606060;cursor:default;font-size:11px;fill:#606060;" text-anchor="middle" transform="translate(0,0)" y="384" opacity="1">Jul</text><text x="327.25" style="color:#606060;cursor:default;font-size:11px;fill:#606060;" text-anchor="middle" transform="translate(0,0)" y="384" opacity="1">Aug</text><text x="362.75" style="color:#606060;cursor:default;font-size:11px;fill:#606060;" text-anchor="middle" transform="translate(0,0)" y="384" opacity="1">Sep</text><text x="398.25" style="color:#606060;cursor:default;font-size:11px;fill:#606060;" text-anchor="middle" transform="translate(0,0)" y="384" opacity="1">Oct</text><text x="433.75" style="color:#606060;cursor:default;font-size:11px;fill:#606060;" text-anchor="middle" transform="translate(0,0)" y="384" opacity="1">Nov</text><text x="469.25" style="color:#606060;cursor:default;font-size:11px;fill:#606060;" text-anchor="middle" transform="translate(0,0)" y="384" opacity="1">Dec</text></g><g class="highcharts-axis-labels highcharts-yaxis-labels" ><text x="46" style="color:#606060;cursor:default;font-size:11px;fill:#606060;width:188px;text-overflow:clip;" text-anchor="end" transform="translate(0,0)" y="370" opacity="1">-5</text><text x="46" style="color:#606060;cursor:default;font-size:11px;fill:#606060;width:188px;text-overflow:clip;" text-anchor="end" transform="translate(0,0)" y="326" opacity="1">0</text><text x="46" style="color:#606060;cursor:default;font-size:11px;fill:#606060;width:188px;text-overflow:clip;" text-anchor="end" transform="translate(0,0)" y="283" opacity="1">5</text><text x="46" style="color:#606060;cursor:default;font-size:11px;fill:#606060;width:188px;text-overflow:clip;" text-anchor="end" transform="translate(0,0)" y="239" opacity="1">10</text><text x="46" style="color:#606060;cursor:default;font-size:11px;fill:#606060;width:188px;text-overflow:clip;" text-anchor="end" transform="translate(0,0)" y="195" opacity="1">15</text><text x="46" style="color:#606060;cursor:default;font-size:11px;fill:#606060;width:188px;text-overflow:clip;" text-anchor="end" transform="translate(0,0)" y="151" opacity="1">20</text><text x="46" style="color:#606060;cursor:default;font-size:11px;fill:#606060;width:188px;text-overflow:clip;" text-anchor="end" transform="translate(0,0)" y="108" opacity="1">25</text><text x="46" style="color:#606060;cursor:default;font-size:11px;fill:#606060;width:188px;text-overflow:clip;" text-anchor="end" transform="translate(0,0)" y="64" opacity="1">30</text></g><g class="highcharts-tooltip"  style="cursor:default;padding:0;white-space:nowrap;" transform="translate(0,-9999)"><path fill="none" d="M 3.5 0.5 L 13.5 0.5 C 16.5 0.5 16.5 0.5 16.5 3.5 L 16.5 13.5 C 16.5 16.5 16.5 16.5 13.5 16.5 L 3.5 16.5 C 0.5 16.5 0.5 16.5 0.5 13.5 L 0.5 3.5 C 0.5 0.5 0.5 0.5 3.5 0.5"  stroke="black" stroke-opacity="0.049999999999999996" stroke-width="5" transform="translate(1, 1)"></path><path fill="none" d="M 3.5 0.5 L 13.5 0.5 C 16.5 0.5 16.5 0.5 16.5 3.5 L 16.5 13.5 C 16.5 16.5 16.5 16.5 13.5 16.5 L 3.5 16.5 C 0.5 16.5 0.5 16.5 0.5 13.5 L 0.5 3.5 C 0.5 0.5 0.5 0.5 3.5 0.5"  stroke="black" stroke-opacity="0.09999999999999999" stroke-width="3" transform="translate(1, 1)"></path><path fill="none" d="M 3.5 0.5 L 13.5 0.5 C 16.5 0.5 16.5 0.5 16.5 3.5 L 16.5 13.5 C 16.5 16.5 16.5 16.5 13.5 16.5 L 3.5 16.5 C 0.5 16.5 0.5 16.5 0.5 13.5 L 0.5 3.5 C 0.5 0.5 0.5 0.5 3.5 0.5"  stroke="black" stroke-opacity="0.15" stroke-width="1" transform="translate(1, 1)"></path><path fill="rgb(249, 249, 249)" fill-opacity=" .85" d="M 3.5 0.5 L 13.5 0.5 C 16.5 0.5 16.5 0.5 16.5 3.5 L 16.5 13.5 C 16.5 16.5 16.5 16.5 13.5 16.5 L 3.5 16.5 C 0.5 16.5 0.5 16.5 0.5 13.5 L 0.5 3.5 C 0.5 0.5 0.5 0.5 3.5 0.5"></path><text x="8"  style="font-size:12px;color:#333333;fill:#333333;" y="20"></text></g><text x="590" text-anchor="end"  style="cursor:pointer;color:#909090;font-size:9px;fill:#909090;" y="395">Highcharts.com</text></svg>