<?xml version="1.0" encoding="UTF-8" standalone="no"?>
<svg
   xmlns:dc="http://purl.org/dc/elements/1.1/"
   xmlns:cc="http://creativecommons.org/ns#"
   xmlns:rdf="http://www.w3.org/1999/02/22-rdf-syntax-ns#"
   xmlns:svg="http://www.w3.org/2000/svg"
   xmlns="http://www.w3.org/2000/svg"
   xmlns:sodipodi="http://sodipodi.sourceforge.net/DTD/sodipodi-0.dtd"
   xmlns:inkscape="http://www.inkscape.org/namespaces/inkscape"
   viewBox="0 0 512 512"
   id="svg2"
   version="1.1"
   inkscape:version="0.91 r13725"
   sodipodi:docname="crowned-heart (1).svg">
  <metadata
     id="metadata12">
    <rdf:RDF>
      <cc:Work
         rdf:about="">
        <dc:format>image/svg+xml</dc:format>
        <dc:type
           rdf:resource="http://purl.org/dc/dcmitype/StillImage" />
      </cc:Work>
    </rdf:RDF>
  </metadata>
  <defs
     id="defs10">
    <filter
       style="color-interpolation-filters:sRGB"
       inkscape:label="Drop Shadow"
       id="filter3342">
      <feFlood
         flood-opacity="1"
         flood-color="rgb(25,25,25)"
         result="flood"
         id="feFlood3344" />
      <feComposite
         in="flood"
         in2="SourceGraphic"
         operator="in"
         result="composite1"
         id="feComposite3346" />
      <feGaussianBlur
         in="composite1"
         stdDeviation="3"
         result="blur"
         id="feGaussianBlur3348" />
      <feOffset
         dx="-3"
         dy="3"
         result="offset"
         id="feOffset3350" />
      <feComposite
         in="offset"
         in2="offset"
         operator="atop"
         result="composite2"
         id="feComposite3352" />
    </filter>
  </defs>
  <sodipodi:namedview
     pagecolor="#ffffff"
     bordercolor="#666666"
     borderopacity="1"
     objecttolerance="10"
     gridtolerance="10"
     guidetolerance="10"
     inkscape:pageopacity="0"
     inkscape:pageshadow="2"
     inkscape:window-width="2560"
     inkscape:window-height="1386"
     id="namedview8"
     showgrid="false"
     inkscape:zoom="1.0362091"
     inkscape:cx="-118.02572"
     inkscape:cy="125.50037"
     inkscape:window-x="0"
     inkscape:window-y="27"
     inkscape:window-maximized="1"
     inkscape:current-layer="svg2" />
  <path
     d="M0 0h512v512H0z"
     fill="#000"
     opacity="0"
     id="path4" />
  <path
     style="fill:#f3f3f4"
     d="m 188.70703,93.306641 c -4.47045,1.726784 -9.73262,-6.695059 -14.51863,-9.009377 -21.75941,-16.951301 -43.51883,-33.902603 -65.27824,-50.853905 10.27474,39.654297 20.54948,79.308591 30.82422,118.962891 75.67773,0 151.35546,0 227.0332,0 10.85286,-41.41276 21.70573,-82.825521 32.55859,-124.238281 -28.71156,22.154334 -57.42335,44.308367 -86.13476,66.46289 C 292.24025,72.312409 271.29188,49.991336 250.3418,27.671875 229.79688,49.55013 209.25195,71.428385 188.70703,93.306641 Z m 62.79883,-11.408203 c 8.69914,7.95256 17.39891,15.90443 26.09766,23.857422 -9.14709,12.02691 -18.29821,24.05076 -27.44727,36.07617 -9.14907,-12.02541 -18.30018,-24.04926 -27.44727,-36.07617 9.14885,-8.363552 18.29695,-16.727915 27.44727,-25.089844 l 0.73844,0.67432 0.61117,0.558102 z M 165.01758,103.4043 c 11.9224,-0.53813 20.83724,13.23955 15.78515,23.95898 -4.44681,11.95669 -22.527,14.00696 -29.66992,3.50977 -7.55517,-9.4143 -1.64359,-25.30097 10.39453,-27.13086 1.29743,-0.23003 2.09959,-0.51627 3.49024,-0.33789 z m 175.75,0 c 11.9224,-0.53813 20.83724,13.23955 15.78515,23.95898 -4.44681,11.95669 -22.527,14.00696 -29.66992,3.50977 -7.55517,-9.4143 -1.64359,-25.30097 10.39453,-27.13086 1.29743,-0.23003 2.09959,-0.51627 3.49024,-0.33789 z m -4.05274,71.76172 c -28.64549,0.10833 -56.1618,15.89949 -71.82031,39.58007 -3.69773,4.69769 -6.86329,9.77861 -9.8457,14.95118 -13.09092,-27.08544 -38.31602,-49.62963 -68.85156,-53.62305 -35.99327,-5.67264 -74.16996,15.20298 -89.41621,48.44984 -15.893515,33.33589 -11.405314,74.59702 10.88886,104.03649 26.47739,35.92331 65.53477,59.75143 97.46455,90.49928 20.36532,19.15603 38.64503,41.19831 49.9417,66.98314 18.40015,-44.39805 55.77437,-76.64433 91.47206,-107.10824 23.60966,-20.16615 47.43182,-41.22456 63.75332,-67.82155 17.56268,-25.43691 19.58972,-59.36641 6.3254,-86.9081 -9.07262,-22.72416 -29.6996,-39.10057 -53.11212,-45.24496 -8.65864,-2.66653 -17.74291,-3.93291 -26.79999,-3.7941 z m 3.37891,14.71289 c 29.17582,0.68737 53.0745,23.4611 63.85766,49.23629 6.55016,14.90923 10.05984,32.42681 3.36304,47.93363 -6.57617,17.06343 -19.91877,30.78852 -35.47656,40.04492 12.49002,-20.60128 11.14671,-46.56158 2.89453,-68.1543 -8.9935,-24.57325 -33.40961,-38.60228 -56.67186,-46.9915 -7.49814,-3.30982 -15.89887,-4.07557 -23.20314,-7.57881 -3.36641,-3.79374 2.85531,-6.8173 5.89258,-7.63476 12.63872,-4.05494 26.14985,-6.81019 39.34375,-6.85547 z"
     id="path6"
     inkscape:connector-curvature="0" />
  <path
     style="fill:#f3f3f4;filter:url(#filter3342)"
     d="m -592.08293,210.44617 c -4.47045,1.72679 -9.73262,-6.69505 -14.51863,-9.00937 l -65.27824,-50.85392 c 26.23483,198.529 246.29868,163.06917 290.41601,-5.27539 -28.71156,22.15434 -57.42335,44.30838 -86.13476,66.4629 -20.95116,-22.31845 -41.89953,-44.63952 -62.84961,-66.95899 z m 62.79883,-11.4082 c 8.69914,7.95256 17.39891,15.90443 26.09766,23.85742 -9.14709,12.02691 -18.29821,24.05076 -27.44727,36.07617 -9.14907,-12.02541 -18.30018,-24.04926 -27.44727,-36.07617 9.14885,-8.36355 18.29695,-16.72791 27.44727,-25.08984 l 0.73844,0.67432 z m -86.48828,21.50586 c 11.9224,-0.53813 20.83724,13.23955 15.78515,23.95898 -4.44681,11.95669 -22.527,14.00696 -29.66992,3.50977 -7.55517,-9.4143 -1.64359,-25.30097 10.39453,-27.13086 1.29743,-0.23003 2.09959,-0.51627 3.49024,-0.33789 z m 175.75,0 c 11.9224,-0.53813 20.83724,13.23955 15.78515,23.95898 -4.44681,11.95669 -22.527,14.00696 -29.66992,3.50977 -7.55517,-9.4143 -1.64359,-25.30097 10.39453,-27.13086 1.29743,-0.23003 2.09959,-0.51627 3.49024,-0.33789 z m 307.32768,264.50755 c 20.36532,19.15603 -499.85632,-18.63517 -488.55965,7.14966 363.83793,-475.35323 240.46247,-242.37947 488.55965,-7.14966 z"
     id="path6-5"
     inkscape:connector-curvature="0"
     sodipodi:nodetypes="ccccccccccccccccccccccccccc" />
  <g
     id="g3407" />
  <path
     style="fill:#ef9a9a"
     d="m -436.22634,219.13168 c -4.47045,1.72679 -9.73262,-6.69506 -14.51863,-9.00938 l -65.27823,-50.8539 30.82422,118.96289 227.03318,0 32.55859,-124.23828 c -28.71156,22.15433 -57.42335,44.30837 -86.13476,66.46289 -20.95116,-22.31845 -41.89953,-44.63952 -62.84961,-66.95898 z m 62.79882,-11.4082 c 8.69914,7.95256 17.39891,15.90443 26.09766,23.85742 -9.14709,12.02691 -18.29821,24.05077 -27.44727,36.07618 -9.14907,-12.02541 -18.30018,-24.04927 -27.44726,-36.07618 9.14884,-8.36355 18.29694,-16.72791 27.44726,-25.08984 l 0.73844,0.67432 z m -86.48826,21.50586 c 11.92239,-0.53813 20.83723,13.23955 15.78514,23.95898 -4.44681,11.95669 -22.52699,14.00696 -29.66991,3.50978 -7.55517,-9.41431 -1.64359,-25.30098 10.39453,-27.13087 1.29743,-0.23003 2.09959,-0.51627 3.49024,-0.33789 z m 175.74998,0 c 11.9224,-0.53813 20.83724,13.23955 15.78515,23.95898 -4.44681,11.95669 -22.527,14.00696 -29.66992,3.50978 -7.55517,-9.41431 -1.64359,-25.30098 10.39453,-27.13087 1.29743,-0.23003 2.09959,-0.51627 3.49024,-0.33789 z"
     id="path3405"
     inkscape:connector-curvature="0"
     sodipodi:nodetypes="cccccccccccccccccccccccccc" />
</svg>
