<?xml version="1.0" encoding="UTF-8" standalone="no"?>
<svg xmlns:rdf="http://www.w3.org/1999/02/22-rdf-syntax-ns#" xmlns="http://www.w3.org/2000/svg" width="100%" height="100%" viewBox="0 0 128 128" pointer-events="none" version="1.1" xmlns:cc="http://creativecommons.org/ns#" xmlns:dc="http://purl.org/dc/elements/1.1/" display="block">
 <path style="fill:#84ffff" d="m2.0434 0.65806h128v45.753 82.247h-128z"/>
 <g transform="translate(25.718 41.681)">
  <path style="fill:#c62828;fill-rule:evenodd" d="m27.855-17.044c-22.018 8.3667 22.534 23.648 22.534 23.648s20.125-15.569 23.466-18.265c11.41-9.2099-21.527-14.682-45.999-5.3831z"/>
  <ellipse style="stroke-linejoin:round;color-rendering:auto;fill-rule:evenodd;color:#000000;isolation:auto;mix-blend-mode:normal;shape-rendering:auto;solid-color:#000000;stroke:#fff;stroke-linecap:round;image-rendering:auto;stroke-width:5.0884;display:inline;fill:#060022" rx="4.9938" ry="5.1847" transform="matrix(.80037 .59951 -.58505 0.811 0 0)" cy="-28.251" cx="40.613" display="inline"/>
  <path d="m41.676-2.1617c4.094 23.196-21.8-12.89-21.8-12.89s-6.9908-19.608-6.3866-23.858c2.0649-14.517 23.637 10.967 28.187 36.748z" style="fill:#ff9e80;fill-rule:evenodd"/>
  <path style="fill:#ffab00;fill-rule:evenodd" d="m18.761 37.577c12.223-1.052 9.2164 14.953 40.215 4.2343l-10.879 20.422-32.701-9.508z"/>
  <path style="fill:#ffc107;fill-rule:evenodd" d="m25.365 38.688 11.431 34.09-28.925 3.616 1.8845-35.134z"/>
  <path style="fill:#d84315;fill-rule:evenodd" d="m41.95-0.21308c8.9281 12.326-25.425 0.89075-25.307 0.97307 0 0-16.498-12.696-18.292-16.595-6.1277-13.321 25.81-3.5847 43.599 15.622z"/>
  <path d="m35.49 15.571c-8.4-17.618 24.105 15.357 14.719-10.803-27.383-76.327-45.985 43.113-40.03 50.652 5.7587 7.2901 19.32 7.4146 25.246 4.0422 10.94-6.2267 7.7445-27.786 0.06549-43.892z" style="fill:#fce4ec;fill-rule:evenodd"/>
  <ellipse style="stroke-linejoin:round;color-rendering:auto;fill-rule:evenodd;color:#000000;isolation:auto;mix-blend-mode:normal;shape-rendering:auto;solid-color:#000000;stroke:#fff;stroke-linecap:round;image-rendering:auto;stroke-width:4.8441;display:inline;fill:#060022" rx="4.7541" ry="4.9358" transform="matrix(.80037 .59951 -.58505 0.811 0 0)" cy="-23.757" cx="30.207" display="inline"/>
  <path d="m44.321 2.3651c13.104-15.163-32.316-27.061-0.000048 0z" style="fill:#212121;fill-rule:evenodd"/>
  <path style="fill:#212121;fill-rule:evenodd" d="m56.093 5.2387c10.718-10.476-25-21.898-0.000038-0.000003z"/>
  <path style="fill:#b71c1c;fill-rule:evenodd" d="m33.067 21.232c-27.549 13.06 43.114-10.322 49.704 36.537 9.923-16.006-1.542-49.397-9.462-39.202-3.679-3.296-33.589 6.508-40.242 2.665z"/>
  <path style="fill:#ff1744;fill-rule:evenodd" d="m23.297 21.875s3.0811-13.375 0.1505-11.65c-15.688-6.8742-18.123 30.513-6.887 33.765 17.34 4.3304 30.111-30.654 6.736-22.115z"/>
 </g>
</svg>
