<?xml version="1.0" encoding="UTF-8" standalone="no"?>
<svg
   xmlns:dc="http://purl.org/dc/elements/1.1/"
   xmlns:cc="http://creativecommons.org/ns#"
   xmlns:rdf="http://www.w3.org/1999/02/22-rdf-syntax-ns#"
   xmlns:svg="http://www.w3.org/2000/svg"
   xmlns="http://www.w3.org/2000/svg"
   xmlns:sodipodi="http://sodipodi.sourceforge.net/DTD/sodipodi-0.dtd"
   xmlns:inkscape="http://www.inkscape.org/namespaces/inkscape"
   version="1.1"
   pointer-events="none"
   height="100%"
   width="100%"
   display="block"
   viewBox="0 0 128 128"
   id="svg2"
   inkscape:version="0.91 r13725"
   sodipodi:docname="avatar-4.svg">
  <metadata
     id="metadata28">
    <rdf:RDF>
      <cc:Work
         rdf:about="">
        <dc:format>image/svg+xml</dc:format>
        <dc:type
           rdf:resource="http://purl.org/dc/dcmitype/StillImage" />
      </cc:Work>
    </rdf:RDF>
  </metadata>
  <defs
     id="defs26" />
  <sodipodi:namedview
     pagecolor="#ffffff"
     bordercolor="#666666"
     borderopacity="1"
     objecttolerance="10"
     gridtolerance="10"
     guidetolerance="10"
     inkscape:pageopacity="0"
     inkscape:pageshadow="2"
     inkscape:window-width="640"
     inkscape:window-height="480"
     id="namedview24"
     showgrid="false" />
  <path
     fill="#84ffff"
     d="m-0.10632 0.43418h128v128h-128z"
     id="path4" />
  <circle
     id="circle8"
     r="8"
     display="inline"
     cx="73.18"
     cy="23.166"
     style="color:#000000;display:inline;isolation:auto;mix-blend-mode:normal;solid-color:#000000;fill:#060022;fill-rule:evenodd;stroke:#ffffff;stroke-width:8;stroke-linecap:round;stroke-linejoin:round;color-rendering:auto;image-rendering:auto;shape-rendering:auto" />
  <path
     style="fill:#757575;fill-rule:evenodd"
     inkscape:connector-curvature="0"
     id="path10"
     d="M 75.249,83.174 C 62.468,91.1098 46.136,48.688 46.136,48.688 c 0,0 4.2557,-12.147 9.1085,-11.515 16.581,2.1597 34.21,37.18 20.005,46.001 z" />
  <path
     style="fill:#ffab00;fill-rule:evenodd"
     inkscape:connector-curvature="0"
     id="path12"
     d="M 54.48,77.683 77.038,88.267 62.79,101.53 47.087,85.119 Z" />
  <path
     style="fill:#ffc107;fill-rule:evenodd"
     inkscape:connector-curvature="0"
     id="path14"
     d="m 47.913,84.207 16.016,17.316 -16.886,9.4023 -8.0792,-21.277 z" />
  <path
     style="opacity:1;fill:#212121;fill-opacity:1;fill-rule:evenodd;stroke:none;stroke-width:2.40499997;stroke-linejoin:round;stroke-miterlimit:4;stroke-dasharray:none;stroke-opacity:1"
     d="m 14.060871,76.647556 c 7.698679,-7.801176 22.300487,-10.396303 34.47634,-14.030255 6.296306,-1.879168 19.676741,-3.938317 19.676741,-3.938317 0,0 8.474917,17.472759 1.513594,23.383758 -12.727358,10.807057 -45.015252,14.823998 -58.189333,4.307535 -3.0461521,-2.431648 -0.116518,-7.0484 2.522658,-9.722721 z"
     id="path3364"
     inkscape:connector-curvature="0"
     sodipodi:nodetypes="aacaaa" />
  <path
     style="fill:#f5f5f5;fill-rule:evenodd"
     inkscape:connector-curvature="0"
     id="path16"
     d="M 31.556,47.9 C 15.967256,120.4884 82.80851,88.204315 73.803,52.479 71.016,41.421 57.769,46.565 49.357,45.927 43.404,45.475 40.754,44.082 31.556,47.9 Z"
     sodipodi:nodetypes="cccc" />
  <path
     style="fill:#212121;fill-rule:evenodd"
     inkscape:connector-curvature="0"
     id="path18"
     d="M 70.659,47.687 C 79.114,47.063 37.095,60.342 31.667,44.646 24.746,-21.105 119.14,38.563 70.659,47.687 Z" />
  <path
     style="fill:#424242;fill-rule:evenodd"
     inkscape:connector-curvature="0"
     id="path20"
     d="M 37.139,95.817 C 52.175,96.30963 45.1393,51.4 45.1393,51.4 c 0,0 -9.753,-8.3982 -13.642,-5.427 -13.286,10.152 -11.07,49.296 5.6415,49.844 z" />
  <circle
     id="circle22"
     display="inline"
     r="8"
     cy="24.201"
     cx="60.911999"
     style="color:#000000;display:inline;isolation:auto;mix-blend-mode:normal;solid-color:#000000;fill:#060022;fill-rule:evenodd;stroke:#ffffff;stroke-width:8;stroke-linecap:round;stroke-linejoin:round;color-rendering:auto;image-rendering:auto;shape-rendering:auto" />
</svg>
