<?xml version="1.0" encoding="UTF-8" standalone="no"?>
<svg xmlns:rdf="http://www.w3.org/1999/02/22-rdf-syntax-ns#" xmlns="http://www.w3.org/2000/svg" width="100%" height="100%" viewBox="0 0 128 128" pointer-events="none" version="1.1" xmlns:cc="http://creativecommons.org/ns#" xmlns:dc="http://purl.org/dc/elements/1.1/" display="block">
 <path d="m-0.025891 0.066841h128v128h-128z" style="fill:#84ffff"/>
 <g transform="matrix(.97523 .22120 -.22120 .97523 20.113 -9.2724)">
  <circle style="stroke-linejoin:round;color-rendering:auto;fill-rule:evenodd;color:#000000;isolation:auto;mix-blend-mode:normal;shape-rendering:auto;solid-color:#000000;stroke:#fff;stroke-linecap:round;image-rendering:auto;stroke-width:6.6413;display:inline;fill:#060022" cx="45.066" display="inline" cy="28.496" r="6.6413"/>
  <path style="fill:#424242;fill-rule:evenodd" d="m77.168 86.664c-4.019 12.545-41.443-10.783-41.443-10.783s-4.5002-11.294-0.7349-13.329c12.865-6.9489 46.644 10.167 42.178 24.111z"/>
  <path d="m67.986 88.192 25.748 9.862-14.655 15.786-18.652-16.846z" style="fill:#ffab00;fill-rule:evenodd"/>
  <path d="m55.353 102.25 21.898 14.2-15.544 14.69-14.466-20.61z" style="fill:#ffc107;fill-rule:evenodd"/>
  <path style="fill:#616161;fill-rule:evenodd" d="m36.175 58.084c-19.189-10.739 71.985-28.393-1.024-30.34-57.656-1.538-1.992 83.576 10.01 85.946 12.06 2.39 26.612-7.23 30.379-15.243 6.956-14.787-19.006-28.97-39.365-40.363z"/>
  <path d="m25.237 71.786c30.717 62.564 62.113 25.46 31.568 2.789-19.513-15.774-39.666-22.485-32.134-4.701-5.8185 2.5022 6.9184-5.0736 0.56578 1.9119z" style="fill:#f5f5f5;fill-rule:evenodd"/>
  <circle style="stroke-linejoin:round;color-rendering:auto;fill-rule:evenodd;color:#000000;isolation:auto;mix-blend-mode:normal;shape-rendering:auto;solid-color:#000000;stroke:#fff;stroke-linecap:round;image-rendering:auto;stroke-width:6.3225;display:inline;fill:#060022" cx="31.227" display="inline" cy="34.252" r="6.3225"/>
  <path style="fill:#212121;fill-rule:evenodd" d="m40.705 33.068c2.336-25.612-55.919-2.9273-0.000052 0.000037z"/>
  <path d="m52.812 103.5c10.298-8.216-24.81-34.903-24.81-34.903s-12.156-0.19131-12.719 4.0512c-1.922 14.499 26.084 39.992 37.529 30.852z" style="fill:#424242;fill-rule:evenodd"/>
  <path style="fill:#212121;fill-rule:evenodd" d="m55.64 26.973c3.4094-18.974-44.009-3.253-0.000043 0.000026z"/>
 </g>
</svg>
