<?xml version="1.0" encoding="UTF-8" standalone="no"?>
<svg xml:space="preserve" height="100%" viewBox="0 0 350 350" xmlns:dc="http://purl.org/dc/elements/1.1/" style="pointer-events:none" fit="" width="100%" version="1.1" xmlns:xlink="http://www.w3.org/1999/xlink" xmlns:cc="http://creativecommons.org/ns#" xmlns:rdf="http://www.w3.org/1999/02/22-rdf-syntax-ns#" xmlns="http://www.w3.org/2000/svg" y="0px" x="0px" preserveAspectRatio="xMidYMid meet" display="block"><g transform="matrix(0 1 -1 0 265.03 213.77)"><g id="mouth" fill-rule="evenodd" transform="matrix(0 -1 1 0 -221.24 262.58)"><path fill="#f48fb1" class="mouth1" d="m251.7 127.36c22.63-25.96 50.746-41.516 63.334-35.486-4.995 5.784-20.682 4.878-38.78 39.15-4.41 4.72-13.96-1.502-24.552-3.664z"/><path fill="#80cbc4" class="mouth1" d="m243.96 134.55c27.668 11.743 69.196 13.632 73.608-2.334l-5.324-33.167s-6.716-4.126-12.86 1.907c-12.316 12.096-38.918 18.554-55.423 33.593z"/></g><g stroke-linejoin="round" transform="matrix(0 -1 1 0 -221.24 262.58)" stroke-width=".242" fill="#00796b"><path d="m112.77 214.14c9.453-1.417 38.937 35.19 27.03 42.597-11.355 7.065-41.624 8.98-40.322-3.383 0.833-7.92-9.007-23.954-9.007-23.954zm112.07 5.961c-0.847 12.194-3.986 34.38 1.51 35.972 4.24 1.226 31.676-3.79 31.676-3.79 15.196-4.8-12.478-43.2-12.578-43.328z"/></g><path fill-rule="evenodd" fill="#009688" d="m-165.99-40.44c0.07 9.278 4.06 20.688 12.847 33.815 4.55 44.52 87.44 29.92 97.91 44.676-2.156 3.93-22.468 23.68-28.912 57.847-2.12 13.903 2.01 30.77 9.176 46.393-0.05 0.05-0.08 0.12-0.07 0.222 6.72 73.822-16.803 104.99-17.16 113.89-2.27 15.314 73.386-55.744 80.69-58.465-0.35-0.27-0.865-0.814-1.482-1.525 44.292 10.924 11.566-31.765 28.116-40.935 11.524-17.524 12.426-46.01 10.478-58.5-2.92-18.72-11.182-28.108-11.182-28.108 40.407-47.557-22.993-45.187-37.405-57.29 1.92 1.172-49.274-27.873-79.87-27.56 0 0 10.015-45.288 6.886-51.17 0 0-35.627-34.09-52.71 2.385-11.01 3.997-17.4 12.4-17.31 24.328zm154.48 238.38c0.35 0.27 0.554 0.306 0.562 0.024-0.05-0.146-0.25-0.14-0.562-0.026z"/><path fill="#333" d="m-146.44-52.622c5.517 0 9.99 4.782 9.99 10.68 0 5.9-4.473 10.683-9.99 10.683s-9.99-4.78-9.99-10.68 4.473-10.68 9.99-10.68z"/><path fill="#fff" d="m-150.4-38.856c0 1.25 0.934 2.26 2.086 2.26s2.086-1.01 2.086-2.26c0-1.248-0.934-2.26-2.086-2.26s-2.086 1.012-2.086 2.26zm7.648-5.04c0 1.92 0.934 3.476 2.086 3.476s2.086-1.556 2.086-3.477c0-1.92-0.934-3.478-2.086-3.478s-2.086 1.558-2.086 3.478z"/><g stroke-linejoin="round" transform="matrix(0 -1 1 0 -221.24 262.58)" stroke-width=".242" fill="#00897b"><path d="m107.84 222.38s4.71 36.347-3.59 41.055c-11.734 6.655-48.315-7.65-43.706-19.427 2.95-7.545 4.42-35.446 4.42-35.446 15.772-31.548 30.626-17.306 42.874 13.817zm90.66-16.81c-9.876 20.95-9.16 58.57 6.03 60.287 16.28 1.84 35.13 3.155 32.677-12.764-1.28-8.308-1.152-31.445 0.57-30.03-6.07-27.04-31.268-31.357-39.278-17.493z"/></g></g></svg>
