<?xml version="1.0" encoding="UTF-8" standalone="no"?>
<svg xml:space="preserve" height="100%" viewBox="0 0 350 350" xmlns:dc="http://purl.org/dc/elements/1.1/" style="pointer-events:none" fit="" width="100%" version="1.1" xmlns:xlink="http://www.w3.org/1999/xlink" xmlns:cc="http://creativecommons.org/ns#" xmlns:rdf="http://www.w3.org/1999/02/22-rdf-syntax-ns#" xmlns="http://www.w3.org/2000/svg" y="0px" x="0px" preserveAspectRatio="xMidYMid meet" display="block"><defs><filter id="filter6857" style="color-interpolation-filters:sRGB"><feFlood flood-color="rgb(0,0,0)" flood-opacity=".2" result="flood"/><feComposite operator="in" in="flood" in2="SourceGraphic" result="composite1"/><feGaussianBlur in="composite1" stdDeviation="3" result="blur"/><feOffset dy="3" dx="-3" result="offset"/><feComposite operator="over" in="SourceGraphic" in2="offset" result="composite2"/></filter><radialGradient id="radialGradient7489" cx="194.14" gradientUnits="userSpaceOnUse" cy="269.03" r="38.782" gradientTransform="matrix(-1.7213 .97353 -.57380 -1.0145 682.67 352.97)"><stop stop-color="#6687e7" offset="0"/><stop stop-color="#4169e1" offset="1"/></radialGradient><radialGradient id="radialGradient55722" gradientUnits="userSpaceOnUse" cy="328.13" cx="194.21" gradientTransform="matrix(1 0 0 .73594 -3.5353 75.157)" r="23.429"><stop offset="0"/><stop stop-opacity="0" offset="1"/></radialGradient><filter id="filter56012" style="color-interpolation-filters:sRGB" height="3.0747" width="2.5162" y="-1.0374" x="-.75808"><feGaussianBlur stdDeviation="14.516774"/></filter></defs><g transform="translate(-37.121 -2.2096)"><g filter="url(#filter6857)" transform="translate(-4.0609 -23.113)"><ellipse style="color-rendering:auto;color:#000000;isolation:auto;mix-blend-mode:normal;shape-rendering:auto;solid-color:#000000;image-rendering:auto" fill-rule="evenodd" rx="134.36" ry="94.589" display="inline" cy="129.57" cx="244.97" fill="#f4dacd"/><flowRoot style="word-spacing:0px;letter-spacing:0px;text-anchor:middle;text-align:center" xml:space="preserve" font-size="60px" transform="translate(-240.61 -105.3)" line-height="125%" font-family="&apos;Source Serif Pro&apos;" fill="#000000"><flowRegion><rect y="196.73" width="144.32" x="420.32" height="92.175"/></flowRegion><flowPara>Rob.</flowPara></flowRoot><g transform="translate(-68.473 40.557)"><g transform="translate(5.7938 17.908)"><ellipse stroke-linejoin="round" stroke-dasharray="1.3385897, 10.70871757" stroke-linecap="round" fill-rule="evenodd" rx="22.979" transform="matrix(.67123 0 0 .67347 90.011 88.31)" stroke="#0091ea" ry="16.793" filter="url(#filter56012)" cy="316.64" cx="190.67" display="block" stroke-width="1.3386" fill="url(#radialGradient55722)"/><g transform="translate(3.1603 -2.6305e-8)"><circle fill-rule="evenodd" transform="matrix(.67123 0 0 .67347 90.011 88.31)" display="block" filter="url(#filter6857)" cy="269.03" cx="194.14" r="38.782" fill="url(#radialGradient7489)"/><g transform="translate(2.6336 -2.1068)"><path d="m81.869 210.63 74.991-54.37" transform="matrix(.67123 0 0 .67347 90.011 88.31)" display="block" filter="url(#filter6857)" stroke="#000" stroke-width="5.3544" fill="none"/><g fill-rule="evenodd"><path d="m157.46 152.26s-31.96 91.278-7.0706 124.62c9.5966 12.856 30.871 9.5407 46.843 11.048 10.129 0.95574 22.384 4.8189 30.492-1.3257 16.558-12.548 19.444-59.216 19.444-59.216l-1.3257-51.262c-22.292-53.571-53.159-52.576-88.382-23.863z" transform="matrix(.67123 0 0 .67347 90.011 88.31)" display="block" filter="url(#filter6857)" fill="#616161"/><path d="m149.36 157.2 30.623 3.7497-5.6246 81.244-32.498 2.4998c-5.8046-30.203 0.17314-58.933 7.4995-87.494z" transform="matrix(.67123 0 0 .67347 90.011 88.31)" display="block" filter="url(#filter6857)" fill="#e91e63"/><path stroke-linejoin="round" d="m224.14 186.9s-100.78-25.104-100.43-26.451c0.36-1.35-33.824-124.47-33.824-124.47l191.09-0.709-8.63 125.65z" display="block" transform="matrix(.67123 0 0 .67347 90.011 88.31)" filter="url(#filter6857)" stroke="#757575" stroke-linecap="round" stroke-width="5.2056" fill="#757575"/></g><path d="m241.23 166.26 47.497 43.122 19.374-59.371" transform="matrix(.67123 0 0 .67347 90.011 88.31)" display="block" filter="url(#filter6857)" stroke="#000" stroke-linecap="round" stroke-width="5.9493" fill="none"/><rect ry=".62270" fill-rule="evenodd" transform="matrix(.67123 0 0 .67347 90.011 88.31)" height="59.658" filter="url(#filter6857)" width="56.565" display="block" y="186.28" x="123.5" fill="#00bcd4"/><path d="m245.93 197.51-90.313-2.4998v44.372l91.018 3.7497c11.068-17.824 8.9131-32.795-0.70558-45.622z" fill-rule="evenodd" transform="matrix(.67123 0 0 .67347 90.011 88.31)" display="block" filter="url(#filter6857)" fill="#424242"/><path d="m179.99 216.26 18.124 16.874 3.1248-25.623 7.4995 25.623 11.874-33.123 1.8749 39.372 17.499-36.872 4.3747 28.123 9.3743-11.874" transform="matrix(.67123 0 0 .67347 90.011 88.31)" display="block" filter="url(#filter6857)" stroke="#009688" stroke-width="1.4873px" fill="none"/><path d="m226.38 214.89-18.124 16.874-3.1248-25.623-7.4995 25.623-11.874-33.123-1.8749 39.372-17.499-36.872-4.3747 28.123-6.0451-9.1091" transform="matrix(.67123 0 0 .67347 90.011 88.31)" display="block" filter="url(#filter6857)" stroke="#0091ea" stroke-width="1.4873px" fill="none"/><g fill-rule="evenodd"><path d="m97.435 266.68c13.3-10.17 14.554-32.082 2.9668-51.878s-32.639-31.711-49.843-28.21c-17.203 3.5016-25.548 21.4-19.756 42.376l54.898-26.636z" transform="matrix(.67123 0 0 .67347 90.011 88.31)" display="block" filter="url(#filter6857)" fill="#bdbdbd"/><path d="m344.35 148.12c6.7182 7.8136 4.7282 19.508-5.0134 29.461-9.7416 9.9533-25.242 16.13-39.05 15.56-13.808-0.56972-23.099-7.769-23.407-18.137-0.30775-10.368 8.4309-21.784 22.015-28.76l-0.76328 47.62z" fill="#bdbdbd"/><ellipse rx="10.827" ry="8.6309" cy="191.74" cx="298.53" fill="#00bcd4"/><ellipse rx="10.827" ry="8.6309" cy="228.64" cx="146.06" fill="#00bcd4"/></g></g></g><g fill-rule="evenodd" transform="translate(1.5801 4.7404)"><path d="m174.97 123.55 4.2137 44.771s36.343 3.687 37.397 0c1.0534-3.687-13.168-63.732-13.168-63.732z" fill="#fafafa"/><path d="m192.87 141.93s1.688 27.675 2.4114 27.446c0.72344-0.22872 17.604-4.1169 17.604-4.1169l-3.8583-27.446z" fill="#616161"/></g><path d="m218.82 173.44-3.8006-44.807s35.111-10.08 36.803-6.6384c1.6912 3.4414-1.6454 65.057-1.6454 65.057z" fill-rule="evenodd" fill="#fafafa"/><path d="m220.01 175.35s-3.2515-27.535-2.4989-27.438c0.75255 0.0967 18.055 0.92669 18.055 0.92669l1.075 27.695z" fill-rule="evenodd" fill="#616161"/></g></g></g></g></svg>
